<?xml version="1.0" encoding="UTF-8" standalone="no"?><!DOCTYPE svg PUBLIC "-//W3C//DTD SVG 1.1//EN" "http://www.w3.org/Graphics/SVG/1.1/DTD/svg11.dtd"><svg width="100%" height="100%" viewBox="0 0 1004 1004" version="1.1" xmlns="http://www.w3.org/2000/svg" xmlns:xlink="http://www.w3.org/1999/xlink" xml:space="preserve" xmlns:serif="http://www.serif.com/" style="fill-rule:evenodd;clip-rule:evenodd;stroke-linecap:round;stroke-linejoin:round;stroke-miterlimit:1.5;"><rect id="Icon-Home" x="-0" y="0" width="1003.94" height="1003.94" style="fill:none;"/><circle cx="501.969" cy="501.969" r="472.441" style="fill:none;stroke:#000;stroke-width:50px;"/><path d="M501.969,97.002l-0,41.517" style="fill:none;stroke:#000;stroke-width:41.67px;"/><path d="M704.452,151.258l-20.759,35.954" style="fill:none;stroke:#000;stroke-width:41.67px;"/><path d="M852.679,299.485l-35.954,20.759" style="fill:none;stroke:#000;stroke-width:41.67px;"/><path d="M906.935,501.969l-41.517,-0" style="fill:none;stroke:#000;stroke-width:41.67px;"/><path d="M852.679,704.452l-35.954,-20.759" style="fill:none;stroke:#000;stroke-width:41.67px;"/><path d="M704.452,852.679l-20.759,-35.954" style="fill:none;stroke:#000;stroke-width:41.67px;"/><path d="M501.969,906.935l-0,-41.517" style="fill:none;stroke:#000;stroke-width:41.67px;"/><path d="M299.485,151.258l20.759,35.954" style="fill:none;stroke:#000;stroke-width:41.67px;"/><path d="M151.258,299.485l35.954,20.759" style="fill:none;stroke:#000;stroke-width:41.67px;"/><path d="M97.002,501.969l41.517,-0" style="fill:none;stroke:#000;stroke-width:41.67px;"/><path d="M151.258,704.452l35.954,-20.759" style="fill:none;stroke:#000;stroke-width:41.67px;"/><path d="M299.485,852.679l20.759,-35.954" style="fill:none;stroke:#000;stroke-width:41.67px;"/><path d="M501.969,501.969l147.367,-255.248" style="fill:none;stroke:#000;stroke-width:41.67px;"/><path d="M501.969,501.969l-0,202.483" style="fill:none;stroke:#000;stroke-width:41.67px;"/></svg>