<?xml version="1.0" encoding="UTF-8" standalone="no"?><!DOCTYPE svg PUBLIC "-//W3C//DTD SVG 1.1//EN" "http://www.w3.org/Graphics/SVG/1.1/DTD/svg11.dtd"><svg width="100%" height="100%" viewBox="0 0 1004 1004" version="1.1" xmlns="http://www.w3.org/2000/svg" xmlns:xlink="http://www.w3.org/1999/xlink" xml:space="preserve" xmlns:serif="http://www.serif.com/" style="fill-rule:evenodd;clip-rule:evenodd;stroke-linecap:round;stroke-linejoin:round;stroke-miterlimit:1.5;"><rect id="Icon-Settings" x="0" y="0" width="1003.94" height="1003.94" style="fill:none;"/><path d="M570.245,39.925l6.883,95.893c35.852,7.359 70.428,19.944 102.622,37.351l66.912,-69.034c38.98,23.976 74.225,53.55 104.605,87.775l-56.366,77.883c22.734,28.682 41.131,60.547 54.604,94.576l95.632,-9.873c14.449,43.423 22.439,88.733 23.712,134.479l-93.241,23.43c-1.022,36.585 -7.412,72.821 -18.964,107.548l79.604,53.908c-16.842,42.552 -39.847,82.397 -68.276,118.258l-86.488,-41.985c-24.299,27.369 -52.485,51.02 -83.657,70.197l26.329,92.465c-40.254,21.77 -83.488,37.506 -128.318,46.703l-39.266,-87.755c-36.206,5.346 -73.001,5.346 -109.207,-0l-39.266,87.755c-44.83,-9.197 -88.064,-24.933 -128.318,-46.703l26.329,-92.465c-31.172,-19.177 -59.358,-42.828 -83.657,-70.197l-86.488,41.985c-28.429,-35.861 -51.434,-75.706 -68.276,-118.258l79.604,-53.908c-11.552,-34.727 -17.942,-70.963 -18.964,-107.548l-93.241,-23.43c1.273,-45.746 9.263,-91.056 23.712,-134.479l95.632,9.873c13.473,-34.029 31.87,-65.894 54.604,-94.576l-56.366,-77.883c30.38,-34.225 65.625,-63.799 104.605,-87.775l66.912,69.034c32.194,-17.407 66.77,-29.992 102.622,-37.351l6.883,-95.893c45.272,-6.69 91.281,-6.69 136.553,-0Zm-68.276,229.021c128.608,-0 233.022,104.414 233.022,233.023c0,128.608 -104.414,233.022 -233.022,233.022c-128.609,0 -233.023,-104.414 -233.023,-233.022c-0,-128.609 104.414,-233.023 233.023,-233.023Z" style="fill:none;stroke:#000;stroke-width:50px;"/></svg>